<?xml version="1.0" standalone="no"?>
<!DOCTYPE svg PUBLIC "-//W3C//DTD SVG 20010904//EN"
 "http://www.w3.org/TR/2001/REC-SVG-20010904/DTD/svg10.dtd">
<svg version="1.0" xmlns="http://www.w3.org/2000/svg"
 width="512.000000pt" height="512.000000pt" viewBox="0 0 512.000000 512.000000"
 preserveAspectRatio="xMidYMid meet">

<g transform="translate(0.000000,512.000000) scale(0.100000,-0.100000)"
fill="#006522" stroke="none">
<path d="M404 5105 c-191 -41 -349 -201 -390 -394 -21 -99 -21 -4203 0 -4302
42 -196 199 -353 393 -394 102 -22 4204 -22 4306 0 194 41 351 198 393 394 21
99 21 4203 0 4302 -42 195 -200 353 -395 395 -95 20 -4214 19 -4307 -1z m3846
-1241 c53 -7 136 -25 185 -39 96 -28 301 -111 311 -126 4 -7 -100 -306 -111
-317 -2 -2 -25 8 -52 21 -107 54 -339 117 -493 132 -82 9 -269 -10 -375 -36
-109 -27 -285 -115 -366 -182 -215 -179 -330 -448 -330 -775 0 -149 15 -248
55 -362 100 -289 368 -515 687 -580 233 -48 506 -28 688 51 l51 21 0 259 0
259 -255 0 -255 0 0 170 0 170 430 0 430 0 0 -529 0 -529 -48 -31 c-108 -69
-304 -141 -497 -182 -96 -21 -136 -24 -315 -23 -174 0 -221 3 -310 23 -137 29
-233 63 -350 121 -356 180 -586 491 -655 891 -19 111 -22 345 -5 468 87 635
542 1076 1180 1141 93 10 274 3 400 -16z m-3180 -497 c174 -268 320 -490 323
-493 3 -3 138 218 301 490 l296 496 211 0 211 0 -14 -22 c-108 -165 -808
-1261 -808 -1265 0 -2 189 -295 421 -651 232 -355 423 -652 426 -659 4 -10
-37 -13 -215 -13 l-220 0 -338 520 c-185 286 -341 517 -345 513 -5 -5 -145
-238 -312 -518 l-304 -510 -212 -3 c-175 -2 -212 0 -209 11 2 8 192 310 423
672 231 362 419 661 418 664 -1 4 -174 272 -385 597 -211 324 -394 606 -407
627 l-23 37 222 -2 222 -3 318 -488z" />
</g>
</svg>
